<?xml version="1.0" encoding="utf-8"?>
<!-- Generator: Adobe Illustrator 24.1.2, SVG Export Plug-In . SVG Version: 6.00 Build 0)  -->
<svg version="1.1" id="Capa_1" xmlns="http://www.w3.org/2000/svg" xmlns:xlink="http://www.w3.org/1999/xlink" x="0px" y="0px"
	 viewBox="0 0 1080 718" style="enable-background:new 0 0 1080 718;" xml:space="preserve">
<style type="text/css">
	.st0{fill:#FF00B3;}
	.st1{fill:#72FFFF;}
</style>
<rect x="292" y="308" width="832" height="40"/>
<rect x="485" y="283" class="st0" width="832" height="12"/>
<rect x="478.2" y="392" transform="matrix(-1 3.072489e-07 -3.072489e-07 -1 1988.8484 798.0003)" width="1032.44" height="14"/>
<rect x="121.56" y="366" transform="matrix(-1 3.267949e-07 -3.267949e-07 -1 1275.5598 746.8908)" class="st1" width="1032.44" height="14.89"/>
<rect x="272.35" y="504.31" transform="matrix(-1 4.540912e-07 -4.540912e-07 -1 1577.1425 1029.309)" width="1032.44" height="20.69"/>
<rect x="332" y="416.67" transform="matrix(-1 1.005978e-06 -1.005978e-06 -1 1617.3512 875.6703)" class="st1" width="953.35" height="42.33"/>
<rect x="206" y="474" class="st0" width="991" height="12"/>
<rect x="362.65" y="563.6" transform="matrix(-1 3.267949e-07 -3.267949e-07 -1 1757.7449 1142.0848)" class="st1" width="1032.44" height="14.89"/>
<rect x="629.65" y="240.28" transform="matrix(-1 6.083661e-07 -6.083661e-07 -1 2291.7449 508.2786)" width="1032.44" height="27.72"/>
<rect x="322" y="181" class="st0" width="832" height="29"/>
<rect x="466.2" y="217.4" transform="matrix(-1 3.267949e-07 -3.267949e-07 -1 1964.8373 449.6817)" class="st1" width="1032.44" height="14.89"/>
<rect x="496" y="693" width="832" height="25"/>
<rect x="262" y="648" class="st0" width="832" height="35"/>
<rect x="141.26" y="760.95" transform="matrix(-1 4.181328e-07 -4.181328e-07 -1 1314.9513 1540.9474)" width="1032.44" height="19.05"/>
<rect x="340.81" y="735.95" transform="matrix(-1 3.267949e-07 -3.267949e-07 -1 1714.0706 1486.7855)" class="st1" width="1032.44" height="14.89"/>
<rect x="232.61" y="873.26" transform="matrix(-1 6.308126e-07 -6.308126e-07 -1 1497.6534 1775.2559)" width="1032.44" height="28.74"/>
<rect x="511.17" y="789.62" transform="matrix(-1 1.127583e-06 -1.127583e-06 -1 2054.7722 1630.6172)" class="st1" width="1032.44" height="51.38"/>
<rect x="373" y="851" class="st0" width="832" height="12"/>
<rect x="554" y="916" class="st0" width="832" height="12"/>
<rect x="493.91" y="598.23" transform="matrix(-1 8.235748e-07 -8.235748e-07 -1 2020.2559 1233.979)" width="1032.44" height="37.53"/>
<rect x="641" y="536" class="st0" width="832" height="12"/>
<rect x="463.21" y="27.17" class="st0" width="832" height="12"/>
<rect x="110.21" y="74.16" transform="matrix(-1 8.235748e-07 -8.235748e-07 -1 1252.8583 185.8568)" width="1032.44" height="37.53"/>
<rect x="272.77" y="55.17" transform="matrix(-1 3.267949e-07 -3.267949e-07 -1 1577.9781 125.2211)" class="st1" width="1032.44" height="14.89"/>
<rect x="191.56" y="156.47" transform="matrix(-1 2.968457e-07 -2.968457e-07 -1 1415.5604 326.4744)" width="1032.44" height="13.53"/>
<rect x="354.12" y="125.84" transform="matrix(-1 3.267949e-07 -3.267949e-07 -1 1740.6803 266.5658)" class="st1" width="1032.44" height="14.89"/>
<rect x="262.86" y="-19.56" transform="matrix(-1 8.235748e-07 -8.235748e-07 -1 1558.1631 -1.5852)" width="1032.44" height="37.53"/>
<rect x="373.12" y="942.19" transform="matrix(-1 3.267949e-07 -3.267949e-07 -1 1778.6812 1899.2762)" class="st1" width="1032.44" height="14.89"/>
<rect x="417.12" y="971.27" transform="matrix(-1 1.201178e-06 -1.201178e-06 -1 1866.6809 1997.264)" width="1032.44" height="54.73"/>
<rect x="469" y="1045" class="st0" width="832" height="12"/>
</svg>
