<?xml version="1.0" encoding="utf-8"?>
<!-- Generator: Adobe Illustrator 24.1.1, SVG Export Plug-In . SVG Version: 6.00 Build 0)  -->
<svg version="1.1" id="Capa_1" xmlns="http://www.w3.org/2000/svg" xmlns:xlink="http://www.w3.org/1999/xlink" x="0px" y="0px"
	 viewBox="0 0 149 157" style="enable-background:new 0 0 149 157;" xml:space="preserve">
<style type="text/css">
	.st0{fill:#FFFFFF;}
</style>
<g>
	<path class="st0" d="M17.8,78.5c-0.3-30.3,24.9-56.2,54.9-56.7c31.7-0.6,58.3,24,58.5,56.4c0.2,30.9-24.7,56.7-55,56.9
		C43.1,135.3,18.2,111.2,17.8,78.5z M110.8,78.4c0-5.2,0.1-10.3,0-15.5c-0.3-12.5-7.8-20.3-20.3-20.6c-10.7-0.3-21.3-0.3-32,0
		c-12.4,0.3-20.1,8.2-20.4,20.6c-0.2,10.3-0.2,20.7-0.1,31c0.2,12.3,7.9,20.5,20.1,20.9c11,0.4,22,0.3,33-0.1
		c11.7-0.5,19.3-8.6,19.6-20.3C111,89.1,110.8,83.7,110.8,78.4z"/>
	<path class="st0" d="M74,110c-5.5,0-11,0.1-16.5,0c-8.4-0.3-13.9-5.7-14.7-14c-1.1-11.6-1.3-23.3-0.1-34.9
		c0.8-8.3,6.3-14,14.5-14.2c11.5-0.2,23-0.2,34.5,0c8.3,0.2,13.7,5.9,14.5,14.3c1.2,11.8,1,23.6-0.1,35.4c-0.7,7.6-6,12.8-13.7,13.4
		c-0.5,0-1,0.1-1.5,0.1C85.4,110.1,79.7,110.1,74,110C74,110.1,74,110.1,74,110z M92.9,78.1C92.9,67.8,84.8,60,74.3,60
		C63.9,60.1,56.1,68,56.1,78.4C56,88.9,63.9,97,74.1,97C85.1,97,93,89,92.9,78.1z"/>
	<path class="st0" d="M88.7,78.7c-0.3,7.9-7.2,14.5-14.7,14.1c-7.4-0.3-14.1-7.3-13.8-14.4c0.3-7.9,7.1-14.4,14.7-14
		C82.7,64.7,89.1,71.3,88.7,78.7z"/>
</g>
</svg>
