<?xml version="1.0" encoding="utf-8"?>
<!-- Generator: Adobe Illustrator 24.1.1, SVG Export Plug-In . SVG Version: 6.00 Build 0)  -->
<svg version="1.1" id="Capa_1" xmlns="http://www.w3.org/2000/svg" xmlns:xlink="http://www.w3.org/1999/xlink" x="0px" y="0px"
	 viewBox="0 0 204 186" style="enable-background:new 0 0 204 186;" xml:space="preserve">
<style type="text/css">
	.st0{fill:#FFFFFF;}
</style>
<g>
	<g>
		<path class="st0" d="M111,182.5c-5.3,0-10.7,0-16,0c-1.8-1.1-3.9-0.8-5.8-1.1c-38.1-5.6-69.6-37.9-74.1-76
			c-4.7-40.1,17.1-77.8,53.6-93C77.1,8.9,86.1,7.2,95,5.5c5.3,0,10.7,0,16,0c3.2,0.6,6.5,1.2,9.7,1.9C157.9,14.9,186.8,46,191,83
			c4.4,39.1-16.1,75.5-51.3,91.6C130.5,178.7,120.8,180.6,111,182.5z M93.8,90.5c7.2-4.7,9.4-10.8,7.1-18.4
			c-2.1-7.2-7.8-10.1-14.6-10.9c-11.3-1.3-22.6-0.4-33.9-0.7c-2.2-0.1-2.3,1.3-2.3,2.9c0,19.8,0,39.6,0,59.4c0,2,0.5,3.1,2.8,3.1
			c11.3-0.2,22.7,0.7,33.9-0.4c9.5-0.9,15.7-6.3,17.3-14C106,102.2,103.3,96.4,93.8,90.5z M138.7,105.5c0,0.1,0,0.1,0,0.2
			c4.7,0,9.3,0,14,0c1.5,0,2.8,0.2,3.3-2c1.8-9.1-5.1-21.7-14.1-24.5c-9.7-3.1-18.9-2.3-26.3,5.5c-8.4,8.9-8.6,19.4-4.5,30.3
			c3.8,10,12.7,12,22,12.3c9.3,0.4,17.4-4.7,20.5-12.3c0.4-1,1.7-3.2-0.1-3.1c-4.2,0.1-8.9-2.2-12.4,2.4c-2.9,3.7-7,4.3-11.3,3
			c-4.3-1.2-6.2-4.6-7.2-8.8c-0.6-2.2-0.1-3,2.3-2.9C129.3,105.6,134,105.5,138.7,105.5z M132.8,71C132.8,71,132.8,71,132.8,71
			c3.5,0,7-0.1,10.5,0.1c2.5,0.1,3.2-1,3.1-3.3c-0.1-2.3-0.3-3.8-3.2-3.8c-7.2,0.1-14.3,0.1-21.5,0c-2.8,0-2.7,1.6-2.8,3.6
			c0,2,0.1,3.6,2.8,3.5C125.5,70.9,129.1,71,132.8,71z"/>
		<path class="st0" d="M74.8,97.5c2.7,0,5.3-0.3,7.9,0.1c4.3,0.5,7,2.9,7.2,7.5c0.2,4.7-2.5,8.2-7.1,8.6c-5.1,0.4-10.3,0.2-15.4,0.3
			c-2.2,0.1-2.9-0.9-2.8-3c0.1-1.2,0-2.3,0-3.5C64.6,97.3,64.6,97.3,74.8,97.5z"/>
		<path class="st0" d="M74.1,71.5c2.2,0,4.3-0.2,6.4,0c4,0.4,7.1,2.3,7.2,6.8c0.1,4.3-1.9,7.6-6.5,8c-4.8,0.4-9.9,1.3-14.3,0
			c-5.2-1.6-1.5-7-2.3-10.7c-0.4-1.6-1-4.3,2.4-4.2C69.5,71.5,71.8,71.4,74.1,71.5C74.1,71.4,74.1,71.5,74.1,71.5z"/>
		<path class="st0" d="M132.3,96.9c-1.7,0-3.3,0.1-5,0c-1.4-0.1-3.3,0.7-4.1-0.8c-0.9-1.6,0.3-3.2,1.2-4.6c4-6.1,13-5.9,16.6,0.4
			c2.1,3.7,1.4,5-2.7,5.1C136.2,97,134.3,96.9,132.3,96.9z"/>
	</g>
</g>
</svg>
