<?xml version="1.0" encoding="utf-8"?>
<!-- Generator: Adobe Illustrator 24.1.1, SVG Export Plug-In . SVG Version: 6.00 Build 0)  -->
<svg version="1.1" id="Capa_1" xmlns="http://www.w3.org/2000/svg" xmlns:xlink="http://www.w3.org/1999/xlink" x="0px" y="0px"
	 viewBox="0 0 500 500" style="enable-background:new 0 0 500 500;" xml:space="preserve">
<style type="text/css">
	.st0{fill:#FFFFFF;}
</style>
<g>
	<path class="st0" d="M253.77,484.63C123.76,486.46,19.07,381.7,17.28,254.56C15.44,123.61,120.7,18.95,247.63,17.26
		c130.54-1.74,235.38,103.15,237.05,230.04C486.49,384.32,375.27,485.45,253.77,484.63z M267.28,223.55
		c-0.17-3.37-0.31-5.51-0.37-7.65c-0.21-6.75-0.75-7.34-7.57-7.31c-12.32,0.05-24.65,0.26-36.97,0.19
		c-4.15-0.02-6.09,1.33-6.08,5.74c0.08,45.81,0.08,91.63,0.01,137.44c-0.01,4.49,1.77,6.24,6.26,6.17
		c11.99-0.19,23.99-0.1,35.98-0.13c7.73-0.02,8.14-0.4,8.14-8.24c0.02-26.66-0.04-53.31,0.03-79.97c0.03-13.36,8.89-22.98,22.2-23.3
		c11.72-0.28,21.05,3.15,22.15,17.99c0.26,3.48,0.58,6.97,0.59,10.46c0.05,25.48,0.01,50.97,0.03,76.45c0,5.95,0.61,6.55,6.63,6.57
		c11.99,0.04,23.98,0.03,35.97,0.01c7.02-0.01,7.65-0.64,7.65-7.75c0.01-32.65-0.03-65.31,0.02-97.96
		c0.02-14.26-6.61-25.37-17.1-34.04c-14.37-11.89-31.23-13.77-49.01-10.07C285.18,210.38,276.1,215.75,267.28,223.55z
		 M190.37,283.39c0-22.83-0.06-45.65,0.05-68.48c0.02-4.14-1.27-6.15-5.71-6.13c-12.83,0.05-25.65-0.05-38.48-0.27
		c-4.67-0.08-6.68,1.81-6.61,6.52c0.13,8.82-0.01,17.65-0.01,26.48c-0.01,36.31-0.01,72.61,0,108.92c0,6.95,0.75,7.65,7.78,7.65
		c11.83,0.01,23.66,0.01,35.49,0c7.25-0.01,7.48-0.25,7.49-7.7C190.38,328.05,190.37,305.72,190.37,283.39z M190.35,169.35
		c0.1-14.14-10.9-25.48-24.97-25.73c-13.55-0.25-25.74,12-25.74,25.86c0,13.29,11.78,24.72,25.55,24.79
		C178.99,194.35,190.25,183.19,190.35,169.35z"/>
</g>
</svg>
